<svg width="3" height="11" viewBox="0 0 3 11" fill="none" xmlns="http://www.w3.org/2000/svg">
<path d="M1.53838 2.88462C2.19415 2.88462 2.73068 2.34808 2.73068 1.69231C2.73068 1.03654 2.19415 0.5 1.53838 0.5C0.882608 0.5 0.346069 1.03654 0.346069 1.69231C0.346069 2.34808 0.882608 2.88462 1.53838 2.88462ZM1.53838 4.07692C0.882608 4.07692 0.346069 4.61346 0.346069 5.26923C0.346069 5.925 0.882608 6.46154 1.53838 6.46154C2.19415 6.46154 2.73068 5.925 2.73068 5.26923C2.73068 4.61346 2.19415 4.07692 1.53838 4.07692ZM1.53838 7.65385C0.882608 7.65385 0.346069 8.19039 0.346069 8.84616C0.346069 9.50192 0.882608 10.0385 1.53838 10.0385C2.19415 10.0385 2.73068 9.50192 2.73068 8.84616C2.73068 8.19039 2.19415 7.65385 1.53838 7.65385Z" fill="white"/>
</svg>
