<svg width="103" height="30" viewBox="0 0 103 30" fill="none" xmlns="http://www.w3.org/2000/svg">
<rect width="102.388" height="28.6154" transform="translate(0 0.480835)" fill="#171717" fill-opacity="0.8"/>
<path d="M9.46856 16.9891L10.8192 11.5073H11.5504L11.597 12.6624L10.1532 18.2886H9.38007L9.46856 16.9891ZM8.61625 11.5073L9.72472 16.9705V18.2886H8.88172L7.34476 11.5073H8.61625ZM12.9989 16.9472L14.0888 11.5073H15.3649L13.8279 18.2886H12.9849L12.9989 16.9472ZM11.8998 11.5073L13.2504 17.0078L13.3296 18.2886H12.5565L11.1173 12.6577L11.1732 11.5073H11.8998ZM18.6996 17.2174V14.8933C18.6996 14.7225 18.6701 14.575 18.6111 14.4508C18.5521 14.3266 18.4621 14.2304 18.341 14.1621C18.2199 14.0938 18.0662 14.0596 17.8799 14.0596C17.7154 14.0596 17.571 14.0876 17.4468 14.1434C17.3257 14.1993 17.2325 14.2785 17.1673 14.381C17.1021 14.4803 17.0695 14.5952 17.0695 14.7256H15.8353C15.8353 14.5176 15.885 14.3204 15.9843 14.1341C16.0837 13.9447 16.225 13.7771 16.4082 13.6311C16.5945 13.4821 16.8165 13.3656 17.0742 13.2818C17.335 13.198 17.6269 13.1561 17.9498 13.1561C18.3317 13.1561 18.6717 13.2213 18.9698 13.3517C19.2709 13.479 19.5069 13.6715 19.6777 13.9292C19.8516 14.1869 19.9385 14.5114 19.9385 14.9026V17.1009C19.9385 17.3524 19.954 17.5682 19.9851 17.7483C20.0192 17.9253 20.0689 18.079 20.1341 18.2094V18.2886H18.8813C18.8223 18.1613 18.7773 17.9998 18.7462 17.8042C18.7152 17.6055 18.6996 17.4099 18.6996 17.2174ZM18.872 15.2193L18.8813 15.9505H18.1035C17.911 15.9505 17.7418 15.9707 17.5958 16.0111C17.4499 16.0483 17.3303 16.1042 17.2372 16.1787C17.144 16.2502 17.0742 16.3371 17.0276 16.4396C16.981 16.5389 16.9577 16.6523 16.9577 16.7796C16.9577 16.9038 16.9857 17.0155 17.0416 17.1149C17.1006 17.2143 17.1844 17.2934 17.2931 17.3524C17.4049 17.4083 17.5353 17.4363 17.6843 17.4363C17.9017 17.4363 18.0911 17.3928 18.2525 17.3059C18.414 17.2158 18.5397 17.1071 18.6298 16.9798C18.7198 16.8525 18.7679 16.7314 18.7742 16.6165L19.1281 17.1475C19.0846 17.2748 19.0194 17.4099 18.9325 17.5527C18.8456 17.6955 18.7338 17.829 18.5972 17.9532C18.4606 18.0774 18.296 18.1799 18.1035 18.2606C17.911 18.3414 17.6874 18.3817 17.4328 18.3817C17.1068 18.3817 16.8149 18.3165 16.5572 18.1861C16.2995 18.0557 16.0961 17.8772 15.9471 17.6505C15.798 17.4238 15.7235 17.1661 15.7235 16.8774C15.7235 16.6103 15.7732 16.3744 15.8726 16.1694C15.9719 15.9645 16.1194 15.7922 16.315 15.6525C16.5106 15.5096 16.7528 15.4025 17.0416 15.3311C17.3334 15.2566 17.6672 15.2193 18.0429 15.2193H18.872ZM23.4316 13.2492V14.1341H20.544V13.2492H23.4316ZM21.3171 12.0103H22.5513V16.8354C22.5513 16.9845 22.5715 17.0994 22.6119 17.1801C22.6523 17.2608 22.7128 17.3152 22.7935 17.3431C22.8743 17.3711 22.9705 17.385 23.0823 17.385C23.163 17.385 23.2375 17.3804 23.3059 17.3711C23.3742 17.3617 23.4316 17.3524 23.4782 17.3431L23.4828 18.2653C23.3804 18.2994 23.2639 18.3274 23.1335 18.3491C23.0062 18.3709 22.8618 18.3817 22.7004 18.3817C22.424 18.3817 22.1819 18.3351 21.9738 18.242C21.7658 18.1457 21.6043 17.992 21.4894 17.7809C21.3746 17.5667 21.3171 17.2841 21.3171 16.9333V12.0103ZM26.3192 17.413C26.4931 17.413 26.6484 17.3788 26.785 17.3105C26.9216 17.2422 27.0303 17.1459 27.111 17.0217C27.1948 16.8975 27.2398 16.7532 27.2461 16.5886H28.4058C28.3996 16.9302 28.3033 17.236 28.117 17.5061C27.9307 17.7763 27.6823 17.9905 27.3718 18.1489C27.0644 18.3041 26.7198 18.3817 26.3379 18.3817C25.9497 18.3817 25.6113 18.3165 25.3225 18.1861C25.0338 18.0557 24.7931 17.8741 24.6006 17.6412C24.4112 17.4083 24.2684 17.1382 24.1721 16.8308C24.079 16.5234 24.0324 16.1943 24.0324 15.8434V15.6944C24.0324 15.3435 24.079 15.0144 24.1721 14.707C24.2684 14.3996 24.4112 14.1295 24.6006 13.8966C24.7931 13.6637 25.0338 13.4821 25.3225 13.3517C25.6113 13.2213 25.9482 13.1561 26.3332 13.1561C26.7399 13.1561 27.097 13.2352 27.4044 13.3936C27.7149 13.5519 27.9571 13.7755 28.131 14.0643C28.308 14.353 28.3996 14.693 28.4058 15.0842H27.2461C27.2398 14.9042 27.1995 14.7427 27.125 14.5999C27.0504 14.457 26.9449 14.3422 26.8083 14.2552C26.6716 14.1683 26.5055 14.1248 26.3099 14.1248C26.1019 14.1248 25.928 14.1683 25.7883 14.2552C25.6517 14.3422 25.5445 14.4617 25.4669 14.6138C25.3924 14.7629 25.3396 14.9306 25.3086 15.1168C25.2806 15.3 25.2666 15.4926 25.2666 15.6944V15.8434C25.2666 16.0483 25.2806 16.244 25.3086 16.4303C25.3396 16.6165 25.3924 16.7842 25.4669 16.9333C25.5445 17.0792 25.6517 17.1956 25.7883 17.2826C25.928 17.3695 26.105 17.413 26.3192 17.413ZM30.4318 11.1347V18.2886H29.1975V11.1347H30.4318ZM30.2361 15.5873H29.8729C29.8729 15.2364 29.9194 14.9135 30.0126 14.6185C30.1057 14.3235 30.2377 14.0674 30.4085 13.85C30.5792 13.6296 30.7826 13.4588 31.0186 13.3377C31.2577 13.2166 31.5216 13.1561 31.8104 13.1561C32.0588 13.1561 32.2839 13.1918 32.4857 13.2632C32.6906 13.3315 32.8661 13.4417 33.012 13.5939C33.1579 13.746 33.2697 13.9447 33.3473 14.19C33.428 14.4322 33.4684 14.7272 33.4684 15.0749V18.2886H32.2295V15.0656C32.2295 14.8327 32.1954 14.6496 32.1271 14.516C32.0588 14.3794 31.961 14.2816 31.8336 14.2226C31.7094 14.1636 31.5558 14.1341 31.3726 14.1341C31.1738 14.1341 31.0031 14.1729 30.8602 14.2506C30.7174 14.3251 30.5994 14.4291 30.5063 14.5626C30.4162 14.6961 30.3479 14.8498 30.3013 15.0237C30.2579 15.1976 30.2361 15.3854 30.2361 15.5873ZM36.71 15.8201V15.7223C36.71 15.3528 36.7628 15.0128 36.8684 14.7023C36.9739 14.3887 37.1276 14.117 37.3294 13.8873C37.5313 13.6575 37.7781 13.479 38.07 13.3517C38.3618 13.2213 38.6941 13.1561 39.0667 13.1561C39.4455 13.1561 39.7808 13.2213 40.0727 13.3517C40.3677 13.479 40.6161 13.6575 40.8179 13.8873C41.0197 14.117 41.1734 14.3887 41.279 14.7023C41.3845 15.0128 41.4373 15.3528 41.4373 15.7223V15.8201C41.4373 16.1865 41.3845 16.5265 41.279 16.8401C41.1734 17.1506 41.0197 17.4223 40.8179 17.6552C40.6161 17.8849 40.3692 18.0635 40.0773 18.1908C39.7855 18.3181 39.4517 18.3817 39.076 18.3817C38.7034 18.3817 38.3696 18.3181 38.0746 18.1908C37.7797 18.0635 37.5313 17.8849 37.3294 17.6552C37.1276 17.4223 36.9739 17.1506 36.8684 16.8401C36.7628 16.5265 36.71 16.1865 36.71 15.8201ZM37.9396 15.7223V15.8201C37.9396 16.0406 37.9613 16.2471 38.0048 16.4396C38.0482 16.6321 38.115 16.8013 38.205 16.9472C38.2951 17.0932 38.4115 17.208 38.5544 17.2919C38.7003 17.3726 38.8742 17.413 39.076 17.413C39.2747 17.413 39.4455 17.3726 39.5883 17.2919C39.7311 17.208 39.8476 17.0932 39.9376 16.9472C40.0308 16.8013 40.0991 16.6321 40.1425 16.4396C40.186 16.2471 40.2077 16.0406 40.2077 15.8201V15.7223C40.2077 15.505 40.186 15.3016 40.1425 15.1122C40.0991 14.9197 40.0308 14.7505 39.9376 14.6045C39.8476 14.4555 39.7296 14.3391 39.5836 14.2552C39.4408 14.1683 39.2685 14.1248 39.0667 14.1248C38.868 14.1248 38.6972 14.1683 38.5544 14.2552C38.4115 14.3391 38.2951 14.4555 38.205 14.6045C38.115 14.7505 38.0482 14.9197 38.0048 15.1122C37.9613 15.3016 37.9396 15.505 37.9396 15.7223ZM43.5378 14.3251V18.2886H42.3083V13.2492H43.4633L43.5378 14.3251ZM43.3422 15.5873H42.9789C42.982 15.2209 43.0317 14.8886 43.128 14.5906C43.2242 14.2925 43.3593 14.0363 43.5332 13.8221C43.7102 13.6078 43.9197 13.4433 44.1619 13.3284C44.4041 13.2135 44.6742 13.1561 44.9723 13.1561C45.2145 13.1561 45.4334 13.1902 45.629 13.2585C45.8246 13.3268 45.9923 13.4355 46.132 13.5845C46.2749 13.7336 46.3835 13.9292 46.458 14.1714C46.5357 14.4105 46.5745 14.7054 46.5745 15.0563V18.2886H45.3356V15.047C45.3356 14.8172 45.3014 14.6356 45.2331 14.5021C45.1679 14.3686 45.0717 14.2739 44.9444 14.218C44.8202 14.1621 44.6665 14.1341 44.4833 14.1341C44.2939 14.1341 44.1278 14.1729 43.9849 14.2506C43.8452 14.3251 43.7272 14.4291 43.631 14.5626C43.5378 14.6961 43.4664 14.8498 43.4167 15.0237C43.3671 15.1976 43.3422 15.3854 43.3422 15.5873Z" fill="white"/>
<path fill-rule="evenodd" clip-rule="evenodd" d="M64.6553 10.3042C65.2419 10.4612 65.703 10.9222 65.86 11.5088C66.1437 12.571 66.1449 14.7885 66.1449 14.7885C66.1449 14.7885 66.1449 17.006 65.86 18.0682C65.703 18.6548 65.2419 19.1158 64.6553 19.2728C63.5932 19.5577 59.332 19.5577 59.332 19.5577C59.332 19.5577 55.0709 19.5577 54.0087 19.2728C53.4221 19.1158 52.9611 18.6548 52.8041 18.0682C52.5192 17.006 52.5192 14.7885 52.5192 14.7885C52.5192 14.7885 52.5192 12.571 52.8041 11.5088C52.9611 10.9222 53.4221 10.4612 54.0087 10.3042C55.0709 10.0193 59.332 10.0193 59.332 10.0193C59.332 10.0193 63.5932 10.0193 64.6553 10.3042ZM61.5081 14.7886L57.9682 16.8322V12.7449L61.5081 14.7886Z" fill="white"/>
<path d="M69.0101 16.2209L67.4802 10.6957H68.815L69.3511 13.2003C69.488 13.8172 69.5878 14.3433 69.6528 14.7785H69.6921C69.737 14.4666 69.8379 13.944 69.9938 13.2093L70.549 10.6957H71.8838L70.3348 16.2209V18.8713H69.009V16.2209H69.0101Z" fill="white"/>
<path d="M72.2853 18.6962C72.0161 18.5144 71.8243 18.2318 71.7099 17.8482C71.5966 17.4646 71.5394 16.9554 71.5394 16.3183V15.4512C71.5394 14.8085 71.6045 14.2915 71.7346 13.9023C71.8647 13.5131 72.0677 13.2282 72.3436 13.0498C72.6196 12.8715 72.9818 12.7817 73.4305 12.7817C73.8724 12.7817 74.2257 12.8726 74.4927 13.0543C74.7585 13.236 74.9537 13.5209 75.077 13.9067C75.2004 14.2937 75.2621 14.8085 75.2621 15.4512V16.3183C75.2621 16.9554 75.2016 17.4668 75.0816 17.8527C74.9615 18.2396 74.7664 18.5223 74.4972 18.7006C74.228 18.879 73.8623 18.9687 73.4013 18.9687C72.9257 18.9698 72.5545 18.8779 72.2853 18.6962ZM73.795 17.7607C73.8691 17.5656 73.9072 17.2481 73.9072 16.8062V14.9454C73.9072 14.5169 73.8702 14.2029 73.795 14.0054C73.7199 13.8069 73.5887 13.7082 73.4002 13.7082C73.2185 13.7082 73.0895 13.8069 73.0155 14.0054C72.9403 14.204 72.9033 14.5169 72.9033 14.9454V16.8062C72.9033 17.2481 72.9392 17.5667 73.011 17.7607C73.0828 17.9559 73.2118 18.0535 73.4002 18.0535C73.5887 18.0535 73.7199 17.9559 73.795 17.7607Z" fill="white"/>
<path d="M79.604 18.8725H78.552L78.4353 18.1411H78.4062C78.1201 18.693 77.6916 18.9689 77.1196 18.9689C76.7237 18.9689 76.4309 18.8388 76.2425 18.5797C76.0541 18.3195 75.9598 17.9135 75.9598 17.3616V12.8986H77.3047V17.2831C77.3047 17.55 77.3339 17.7396 77.3922 17.8529C77.4505 17.9662 77.5481 18.0233 77.6849 18.0233C77.8016 18.0233 77.9137 17.9875 78.0214 17.9157C78.1291 17.8439 78.2076 17.753 78.2603 17.6431V12.8975H79.604V18.8725Z" fill="white"/>
<path d="M83.2573 11.7778H81.9225V18.8722H80.6069V11.7778H79.2721V10.6965H83.2573V11.7778Z" fill="white"/>
<path d="M86.501 18.8725H85.4489L85.3323 18.1411H85.3031C85.0171 18.693 84.5887 18.9689 84.0166 18.9689C83.6206 18.9689 83.3279 18.8388 83.1395 18.5797C82.9511 18.3195 82.8568 17.9135 82.8568 17.3616V12.8986H84.2017V17.2831C84.2017 17.55 84.2308 17.7396 84.2892 17.8529C84.3475 17.9662 84.4451 18.0233 84.5819 18.0233C84.6985 18.0233 84.8107 17.9875 84.9184 17.9157C85.0261 17.8439 85.1046 17.753 85.1573 17.6431V12.8975H86.501V18.8725Z" fill="white"/>
<path d="M90.9517 13.8529C90.8698 13.4761 90.7386 13.2035 90.5569 13.0341C90.3752 12.8648 90.1251 12.7807 89.8066 12.7807C89.5598 12.7807 89.3287 12.8502 89.1145 12.9904C88.9003 13.1306 88.7342 13.3134 88.6176 13.5411H88.6075V10.3938H87.312V18.8712H88.4224L88.5593 18.3059H88.5884C88.6927 18.5077 88.8487 18.6659 89.0562 18.7837C89.2637 18.9004 89.4947 18.9587 89.7482 18.9587C90.2025 18.9587 90.5379 18.7489 90.7521 18.3305C90.9663 17.911 91.074 17.2571 91.074 16.3666V15.421C91.074 14.7536 91.0325 14.2298 90.9517 13.8529ZM89.719 16.2903C89.719 16.7254 89.7011 17.0664 89.6652 17.3132C89.6293 17.56 89.5699 17.7361 89.4846 17.8392C89.4005 17.9436 89.2861 17.9952 89.1436 17.9952C89.0326 17.9952 88.9305 17.9694 88.8363 17.9167C88.7421 17.865 88.6659 17.7865 88.6075 17.6833V14.2926C88.6524 14.13 88.7309 13.9976 88.8419 13.8933C88.9519 13.789 89.073 13.7374 89.202 13.7374C89.3388 13.7374 89.4442 13.7913 89.5183 13.8978C89.5934 14.0055 89.645 14.185 89.6742 14.4384C89.7033 14.6919 89.7179 15.052 89.7179 15.5197V16.2903H89.719Z" fill="white"/>
<path d="M92.9818 16.6347C92.9818 17.0182 92.993 17.3054 93.0154 17.4972C93.0379 17.689 93.085 17.8281 93.1568 17.9167C93.2285 18.0042 93.3385 18.0479 93.4876 18.0479C93.6884 18.0479 93.8275 17.9694 93.9015 17.8135C93.9767 17.6576 94.0171 17.3974 94.0238 17.034L95.1836 17.1024C95.1903 17.154 95.1936 17.2257 95.1936 17.3166C95.1936 17.8684 95.0422 18.2812 94.7405 18.5538C94.4388 18.8263 94.0115 18.9632 93.4596 18.9632C92.7967 18.9632 92.3324 18.7557 92.0665 18.3396C91.7996 17.9234 91.6672 17.2807 91.6672 16.4103V15.3672C91.6672 14.471 91.8052 13.816 92.0811 13.4032C92.3571 12.9904 92.8293 12.7841 93.4989 12.7841C93.9598 12.7841 94.3143 12.8682 94.5611 13.0376C94.8078 13.2069 94.9817 13.4694 95.0826 13.8272C95.1836 14.185 95.234 14.6785 95.234 15.3089V16.3318H92.9818V16.6347ZM93.1523 13.8193C93.0838 13.9035 93.039 14.0414 93.0154 14.2332C92.993 14.425 92.9818 14.7155 92.9818 15.1059V15.5343H93.9655V15.1059C93.9655 14.7223 93.952 14.4318 93.9262 14.2332C93.9004 14.0347 93.8533 13.8956 93.7849 13.8137C93.7165 13.733 93.611 13.6915 93.4686 13.6915C93.325 13.6926 93.2196 13.7352 93.1523 13.8193Z" fill="white"/>
</svg>
